<?xml version="1.0" encoding="utf-8"?>
<!-- Generator: Adobe Illustrator 20.1.0, SVG Export Plug-In . SVG Version: 6.00 Build 0)  -->
<svg version="1.1" id="Layer_1" xmlns="http://www.w3.org/2000/svg" xmlns:xlink="http://www.w3.org/1999/xlink" x="0px" y="0px"
	 viewBox="0 0 30 22" style="enable-background:new 0 0 30 22;" xml:space="preserve">
<style type="text/css">
	.st0{fill:#6FC4FA;}
</style>
<g>
	<path class="st0" d="M27,2c0.6,0,1,0.4,1,1v16c0,0.6-0.4,1-1,1H3c-0.6,0-1-0.4-1-1V3c0-0.6,0.4-1,1-1H27 M27,0H3C1.3,0,0,1.3,0,3
		v16c0,1.7,1.3,3,3,3h24c1.7,0,2.9-1.4,3-3V3C30,1.3,28.7,0,27,0L27,0z"/>
	<path class="st0" d="M3,22c-0.3,0-0.5-0.1-0.7-0.3c-0.4-0.4-0.4-1,0-1.4l9-9c0.4-0.4,1-0.4,1.4,0c0.4,0.4,0.4,1,0,1.4l-9,9
		C3.5,21.9,3.3,22,3,22z"/>
	<path class="st0" d="M28,1V0.6l-13,13L2.7,1.3L1.1,2.5l13.2,13.2c0.2,0.2,0.5,0.3,0.7,0.3c0.3,0,0.5-0.1,0.7-0.3L29,2.5L28,1z"/>
	<path class="st0" d="M27.7,20.3l-9-9c-0.4-0.4-1-0.4-1.4,0s-0.4,1,0,1.4l8.7,8.7L27.7,20.3z"/>
</g>
</svg>
