<svg id="Layer_1" data-name="Layer 1" xmlns="http://www.w3.org/2000/svg" viewBox="0 0 30 22"><defs><style>.cls-1{fill:#6fc4fa;}</style></defs><title>mail</title><path class="cls-1" d="M27,2a1,1,0,0,1,1,1V19a1,1,0,0,1-1,1H3a1,1,0,0,1-1-1V3A1,1,0,0,1,3,2H27m0-2H3A3,3,0,0,0,0,3V19a3,3,0,0,0,3,3H27a3.11,3.11,0,0,0,3-3V3a3,3,0,0,0-3-3Z"/><path class="cls-1" d="M3,22a1,1,0,0,1-.71-1.71l9-9a1,1,0,1,1,1.41,1.41l-9,9A1,1,0,0,1,3,22Z"/><path class="cls-1" d="M28,1V.59l-13,13L2.67,1.25,1.06,2.48,14.29,15.71a1,1,0,0,0,1.41,0L29,2.46Z"/><path class="cls-1" d="M27.72,20.3l-9-9a1,1,0,0,0-1.41,1.41L26,21.39Z"/></svg>